<svg width="640" height="360" viewBox="0 0 640 360" fill="none" xmlns="http://www.w3.org/2000/svg">
  <rect width="640" height="360" rx="18" fill="#0D0F0D"/>
  <rect x="20" y="20" width="600" height="320" rx="14" fill="#151915" stroke="#2C332C"/>
  <rect x="40" y="44" width="180" height="272" rx="10" fill="#101310"/>
  <text x="58" y="75" fill="#F4F1E8" font-family="Inter, Arial" font-size="18" font-weight="800">Projects</text>
  <rect x="58" y="102" width="132" height="28" rx="7" fill="#1B201B"/>
  <rect x="58" y="144" width="110" height="28" rx="7" fill="#1B201B"/>
  <rect x="58" y="186" width="148" height="28" rx="7" fill="#1B201B"/>
  <rect x="244" y="44" width="336" height="48" rx="10" fill="#101310"/>
  <text x="266" y="74" fill="#F4F1E8" font-family="Inter, Arial" font-size="18" font-weight="800">Agent Workbench</text>
  <rect x="244" y="116" width="154" height="200" rx="10" fill="#101310" stroke="#2C332C"/>
  <rect x="418" y="116" width="162" height="200" rx="10" fill="#101310" stroke="#2C332C"/>
  <text x="266" y="150" fill="#8FD35E" font-family="Inter, Arial" font-size="14" font-weight="800">Context</text>
  <text x="440" y="150" fill="#54D3C4" font-family="Inter, Arial" font-size="14" font-weight="800">Transcript</text>
  <rect x="266" y="174" width="104" height="10" rx="5" fill="#747D70"/>
  <rect x="266" y="199" width="86" height="10" rx="5" fill="#747D70"/>
  <rect x="440" y="174" width="110" height="10" rx="5" fill="#747D70"/>
  <rect x="440" y="199" width="88" height="10" rx="5" fill="#747D70"/>
</svg>
